<svg width="101" height="101" viewBox="0 0 101 101" fill="none" xmlns="http://www.w3.org/2000/svg">
    <path fill-rule="evenodd" clip-rule="evenodd"
          d="M85.0991 12.7709C85.0991 13.5837 85.4216 14.3636 85.9975 14.9395C86.5701 15.512 87.3499 15.8378 88.1627 15.8378H98.1268C99.6701 15.8378 100.921 17.0883 100.921 18.6316V75.1847C100.921 76.728 99.6701 77.9785 98.1268 77.9785H89.0446C87.5013 77.9785 86.2508 76.728 86.2508 75.1847V17.7563C86.2508 16.9435 85.9284 16.1636 85.3525 15.5877C84.7832 15.0053 84 14.6729 83.184 14.6663H73.2231C71.6798 14.6663 70.4294 13.4159 70.4294 11.8726V2.80353C70.4294 1.26022 71.6798 0.00976562 73.2231 0.00976562H82.3053C83.8487 0.00976562 85.0991 1.26022 85.0991 2.80353V12.7709ZM96.0373 26.9075C96.1327 26.9042 96.2215 26.868 96.2906 26.8022H96.2972C96.3598 26.7331 96.396 26.6442 96.396 26.5488V19.7569C96.396 19.5529 96.5638 19.3851 96.7678 19.3851H97.8998C98.1038 19.3851 98.2716 19.5529 98.2716 19.7569V26.4238C98.2716 26.6278 98.1038 26.7956 97.8998 26.7956H96.6395C96.5441 26.7989 96.4552 26.8351 96.3861 26.9009C96.3203 26.97 96.2808 27.0589 96.2808 27.1543V28.4146C96.2808 28.6186 96.113 28.7865 95.909 28.7865H94.777C94.5729 28.7865 94.4051 28.6186 94.4051 28.4146V27.1543C94.4018 27.0589 94.3656 26.97 94.2998 26.9009C94.2307 26.8351 94.1419 26.7956 94.0464 26.7956H92.6578C92.5624 26.7989 92.4735 26.8351 92.4044 26.9009C92.3386 26.97 92.2991 27.0589 92.2991 27.1543V28.4146C92.2991 28.6186 92.1313 28.7865 91.9272 28.7865H90.7953C90.5912 28.7865 90.4234 28.6186 90.4234 28.4146V27.1543C90.4201 27.0589 90.3839 26.97 90.3181 26.9009C90.249 26.8351 90.1602 26.7956 90.0648 26.7956H88.8044C88.6004 26.7956 88.4326 26.6278 88.4326 26.4238V19.7569C88.4326 19.5529 88.6004 19.3851 88.8044 19.3851H89.9364C90.1404 19.3851 90.3083 19.5529 90.3083 19.7569V26.5488C90.3116 26.6442 90.3477 26.7331 90.4135 26.8022C90.4827 26.868 90.5715 26.9075 90.6669 26.9075H92.0556C92.151 26.9042 92.2399 26.868 92.309 26.8022C92.3748 26.7331 92.4143 26.6442 92.4143 26.5488V19.7569C92.4143 19.5529 92.5821 19.3851 92.7861 19.3851H93.9181C94.1221 19.3851 94.2899 19.5529 94.2899 19.7569V26.5488C94.2932 26.6442 94.3294 26.7331 94.3952 26.8022C94.4643 26.868 94.5532 26.9075 94.6486 26.9075H96.0373ZM94.2637 43.0777V44.3743L94.2669 44.3776C94.2636 44.4664 94.2999 44.552 94.3624 44.6178L94.3887 44.6441C94.4513 44.7066 94.5368 44.7428 94.6289 44.7428H95.9024C96.09 44.7428 96.2413 44.8942 96.2413 45.0818V49.919C96.2413 50.1066 96.09 50.2579 95.9024 50.2579H94.6191C94.5302 50.2547 94.4414 50.2909 94.3789 50.3567L94.3525 50.383C94.29 50.4455 94.2538 50.5311 94.2538 50.6232V51.9066C94.2538 52.0941 94.1024 52.2455 93.9149 52.2455H92.7533C92.5657 52.2455 92.4143 52.0941 92.4143 51.9066V50.6232C92.4176 50.5344 92.3814 50.4455 92.3156 50.383L92.2893 50.3567C92.2268 50.2942 92.1412 50.2579 92.049 50.2579H90.7657C90.5782 50.2579 90.4268 50.1066 90.4268 49.919V45.0653C90.4268 44.8777 90.5782 44.7264 90.7657 44.7264H92.0589C92.1478 44.7297 92.2366 44.6935 92.2991 44.6276L92.3255 44.6013C92.388 44.5388 92.4242 44.4532 92.4242 44.3611V43.0777C92.4242 42.8902 92.5756 42.7388 92.7631 42.7388H93.9247C94.1123 42.7388 94.2637 42.8902 94.2637 43.0777ZM94.2834 50.3172L94.3097 50.2909C94.3722 50.2283 94.4085 50.1428 94.4085 50.0506V44.9633C94.4118 44.8744 94.3755 44.7856 94.3097 44.7231L94.2834 44.6967C94.2209 44.6342 94.1353 44.598 94.0432 44.598H92.6414C92.5525 44.5947 92.4637 44.6309 92.4012 44.6967L92.3748 44.7231C92.3123 44.7856 92.2761 44.8712 92.2761 44.9633V50.0506C92.2728 50.1395 92.309 50.2283 92.3748 50.2909L92.4012 50.3172C92.4637 50.3797 92.5492 50.4159 92.6414 50.4159H94.0432C94.132 50.4192 94.2209 50.383 94.2834 50.3172ZM94.2406 34.6373L94.2077 34.6702C94.1452 34.7327 94.0629 34.7656 93.9741 34.7656H92.6775C92.4966 34.7656 92.3485 34.6175 92.3485 34.4365V31.4091C92.3485 31.2281 92.2004 31.0801 92.0194 31.0801H90.8348C90.6538 31.0801 90.5057 31.2281 90.5057 31.4091V40.1063C90.5057 40.2873 90.6538 40.4354 90.8348 40.4354H92.0194C92.2004 40.4354 92.3485 40.2873 92.3485 40.1063V36.9341C92.3485 36.7532 92.4966 36.6051 92.6775 36.6051H93.9774C94.0662 36.6051 94.1485 36.6413 94.211 36.7005L94.2439 36.7334C94.3064 36.7959 94.3393 36.8782 94.3393 36.967V40.1063C94.3393 40.2873 94.4874 40.4354 94.6684 40.4354H95.853C96.0373 40.4354 96.1821 40.2873 96.1821 40.1063V37.0789C96.1821 36.8979 96.034 36.7499 95.853 36.7499H94.5499C94.4611 36.7499 94.3788 36.7137 94.3163 36.6544L94.2834 36.6215C94.2209 36.559 94.1879 36.4767 94.1879 36.3879V34.9795C94.1879 34.8906 94.2242 34.8084 94.2834 34.7459L94.3163 34.7129C94.3788 34.6504 94.4611 34.6175 94.5499 34.6175H95.8464C96.0307 34.6175 96.1755 34.4694 96.1755 34.2884V31.4058C96.1755 31.2248 96.0274 31.0768 95.8464 31.0768H94.6618C94.4775 31.0768 94.3328 31.2248 94.3328 31.4058V34.4036C94.3328 34.4925 94.3031 34.5813 94.2406 34.6438V34.6373ZM94.2636 54.9307V56.1878V56.1911C94.2603 56.2865 94.2932 56.3786 94.3557 56.451C94.4248 56.5168 94.5137 56.5563 94.6091 56.5563H95.8662C96.0702 56.5563 96.238 56.7241 96.238 56.9282V63.7266C96.238 63.9307 96.0702 64.0985 95.8662 64.0985H94.7506C94.5466 64.0985 94.3788 63.9307 94.3788 63.7266V56.7965C94.3755 56.7011 94.3393 56.6123 94.2735 56.5432C94.2044 56.4773 94.1155 56.4379 94.0201 56.4379H92.6347C92.5393 56.4411 92.4504 56.4773 92.3813 56.5432C92.3155 56.6123 92.2761 56.7011 92.2761 56.7965V63.7168C92.2761 63.9208 92.1082 64.0886 91.9042 64.0886H90.7887C90.5846 64.0886 90.4168 63.9208 90.4168 63.7168V56.9183C90.4168 56.7143 90.5846 56.5464 90.7887 56.5464H92.0457C92.1411 56.5432 92.23 56.507 92.2991 56.4411C92.3649 56.372 92.4044 56.2832 92.4044 56.1878V54.9307C92.4044 54.7267 92.5722 54.5589 92.7762 54.5589H93.8918C94.0958 54.5589 94.2636 54.7267 94.2636 54.9307ZM94.3854 68.2776L94.3656 68.2579C94.2998 68.1921 94.2636 68.1032 94.2669 68.0111V66.7409C94.2669 66.55 94.1122 66.3954 93.9214 66.3954H92.7729C92.5821 66.3954 92.4274 66.55 92.4274 66.7409V68.0111C92.4274 68.1032 92.3912 68.1921 92.3287 68.2579L92.309 68.2776C92.2431 68.3434 92.1543 68.3796 92.0621 68.3763H90.7624C90.5715 68.3763 90.4168 68.531 90.4168 68.7219V75.55C90.4168 75.7408 90.5715 75.8955 90.7624 75.8955H91.9108C92.1017 75.8955 92.2563 75.7408 92.2563 75.55V72.0586V70.2948L92.3024 70.3409C92.3682 70.4067 92.4044 70.4955 92.4011 70.5877V71.8611C92.4011 72.052 92.5557 72.2067 92.7466 72.2067H93.8951C94.0859 72.2067 94.2406 72.052 94.2406 71.8611V70.5942C94.2406 70.5021 94.2768 70.4133 94.3393 70.3475L94.3854 70.3014V75.55C94.3854 75.7408 94.54 75.8955 94.7309 75.8955H95.8793C96.0702 75.8955 96.2248 75.7408 96.2248 75.55V68.712C96.2248 68.5211 96.0702 68.3665 95.8793 68.3665H94.6058C94.5236 68.3632 94.4479 68.3303 94.3854 68.2743V68.2776ZM94.3064 70.252C94.2406 70.3178 94.1517 70.354 94.0596 70.3507H92.6578C92.5656 70.3507 92.4768 70.3145 92.411 70.252L92.3879 70.229C92.3221 70.1632 92.2859 70.0743 92.2892 69.9822V68.6034C92.2892 68.5113 92.3254 68.4224 92.3879 68.3566L92.411 68.3336C92.4768 68.2677 92.5656 68.2316 92.6578 68.2348H94.0497C94.1419 68.2348 94.2307 68.271 94.2965 68.3336L94.3195 68.3566C94.3854 68.4224 94.4216 68.5113 94.4183 68.6034V70.0019C94.4183 70.0974 94.3755 70.1862 94.3031 70.252H94.3064Z"
          fill="white"/>
    <path d="M17.7691 47.2406C18.3449 46.668 19.1215 46.3488 19.931 46.3488H44.578C46.1148 46.3488 47.3619 45.1017 47.3619 43.5649V33.5712C47.3619 32.765 47.6844 31.9917 48.2537 31.4224C48.8295 30.8499 49.6061 30.5307 50.4156 30.5307H60.3929C61.9296 30.5307 63.1768 29.2835 63.1768 27.7468V18.6152C63.1768 17.0785 61.9296 15.8313 60.3929 15.8313H50.4387C48.7473 15.8313 47.3718 14.4591 47.3718 12.7644V2.78389C47.3718 1.24716 46.1246 0 44.5879 0H5.03096C3.4679 0 2.20428 1.2669 2.20428 2.82667V11.8398C2.20428 13.4028 3.47119 14.6664 5.03096 14.6664H45.4566C47.1513 14.6664 48.5268 16.0386 48.5301 17.7366V28.5826C48.5301 29.3954 48.2076 30.172 47.6317 30.7446C47.0559 31.3171 46.2793 31.6363 45.4698 31.6363H20.8129C19.2762 31.6363 18.029 32.8835 18.029 34.4202V44.4074C18.029 45.2169 17.7098 45.9902 17.1373 46.5627C16.5647 47.1353 15.7914 47.4545 14.9819 47.4545H4.98489C3.44815 47.4545 2.20099 48.7017 2.20099 50.2384V59.3436C2.20099 60.8804 3.44815 62.1275 4.98489 62.1275H14.9687C15.7782 62.1275 16.5515 62.4467 17.1241 63.0193C17.6967 63.5919 18.0159 64.3652 18.0159 65.1747V75.1585C18.0159 76.6952 19.263 77.9424 20.7998 77.9424H60.3732C61.9362 77.9424 63.1998 76.6755 63.1998 75.1157V66.1355C63.1998 64.5725 61.9329 63.3089 60.3732 63.3089H19.9442C19.1347 63.3089 18.3581 62.9897 17.7822 62.4171C17.213 61.8478 16.8905 61.0745 16.8905 60.2683V49.3927C16.8839 48.5865 17.2031 47.8099 17.7724 47.2373L17.7691 47.2406Z"
          fill="white"/>
    <path d="M89.5942 90.5688L91.6179 89.0781H84.8425V98.0386H91.6179V96.5446H86.7774V94.251H90.9071V92.7604H86.7774V90.5688H89.5942Z"
          fill="white"/>
    <path d="M79.7321 92.5695H77.3792V90.5688H81.1339L83.1577 89.0781H75.4443V98.0386H79.482C81.7459 98.0386 83.0457 97.0119 83.0457 95.2251C83.0457 93.4382 81.8677 92.5728 79.7321 92.5728V92.5695ZM79.3964 96.5446H77.3792V94.0602H79.3964C80.6238 94.0602 81.1964 94.4748 81.1964 95.3007C81.1964 96.1267 80.5909 96.5413 79.3964 96.5413V96.5446Z"
          fill="white"/>
    <path d="M97.1068 89.0781H93.418V98.0386H95.3496V95.5015H97.1035C99.4563 95.5015 100.921 94.2642 100.921 92.2865C100.921 90.3088 99.4596 89.0814 97.1035 89.0814L97.1068 89.0781ZM97.064 94.0075H95.3496V90.5688H97.064C98.3013 90.5688 98.9858 91.1809 98.9858 92.2865C98.9858 93.3922 98.3046 94.0042 97.064 94.0042V94.0075Z"
          fill="white"/>
    <path d="M72.1274 96.0974C71.6305 96.3705 71.0547 96.5153 70.4591 96.5153C68.715 96.5153 67.4514 95.2714 67.4514 93.557C67.4514 91.8426 68.715 90.5987 70.4591 90.5987C71.1172 90.5987 71.7095 90.783 72.2163 91.1482L73.6016 90.1248L73.5095 90.0459C72.7 89.3351 71.6173 88.96 70.3801 88.96C69.0375 88.96 67.8199 89.4108 66.9512 90.2334C66.0759 91.0594 65.5955 92.221 65.5955 93.5076C65.5955 94.7943 66.0759 95.9789 66.9479 96.8312C67.8232 97.6868 69.0375 98.1573 70.3702 98.1573C71.7029 98.1573 72.9797 97.6703 73.8056 96.7884C73.1705 96.3179 72.5552 95.867 72.5552 95.867L72.1274 96.1007V96.0974Z"
          fill="white"/>
    <path d="M61.1202 93.5567C61.1202 93.1026 61.0807 92.6551 61.0017 92.224L59.3992 93.4054C59.3992 93.4547 59.3992 93.5074 59.3992 93.5567C59.3992 96.7125 56.8325 99.2825 53.6734 99.2825C50.5144 99.2825 47.9477 96.7158 47.9477 93.5567C47.9477 90.3977 50.5144 87.831 53.6734 87.831C54.8712 87.831 55.9802 88.1996 56.9016 88.8314L58.3494 87.7652C57.0727 86.7319 55.4438 86.1133 53.6734 86.1133C49.5634 86.1133 46.23 89.4467 46.23 93.5567C46.23 97.6668 49.5634 101 53.6734 101C57.7835 101 61.1169 97.6668 61.1169 93.5567H61.1202Z"
          fill="white"/>
    <path d="M59.567 89.0059C59.9191 89.46 60.2185 89.9569 60.4587 90.4867L53.6767 95.4852L50.8434 93.7082V91.5693L53.6767 93.3462L59.567 89.0059Z"
          fill="white"/>
</svg>
